<svg width="36" height="36" viewBox="0 0 36 36" fill="none" xmlns="http://www.w3.org/2000/svg">
<path d="M8.2223 2.95748C8.08948 2.7884 7.92183 2.64922 7.73047 2.54919C7.53912 2.44916 7.32845 2.39056 7.11245 2.3773C6.89646 2.36403 6.68008 2.3964 6.4777 2.47224C6.27531 2.54809 6.09155 2.66568 5.93862 2.81721L3.6122 5.12166C2.52548 6.1993 2.12499 7.72447 2.59973 9.06261C4.57231 14.6002 7.77716 19.6284 11.9774 23.7755C16.1681 27.9321 21.2491 31.1036 26.845 33.0556C28.1972 33.5254 29.7384 33.1291 30.8273 32.0537L33.1538 29.7515C33.3069 29.6001 33.4257 29.4183 33.5024 29.218C33.579 29.0177 33.6117 28.8036 33.5983 28.5899C33.5849 28.3761 33.5257 28.1676 33.4246 27.9783C33.3235 27.7889 33.1829 27.623 33.012 27.4915L27.8214 23.4972C27.6387 23.3574 27.4264 23.2603 27.2004 23.2132C26.9744 23.1662 26.7406 23.1704 26.5165 23.2255L21.5891 24.4434C20.9314 24.605 20.2426 24.5958 19.5895 24.4168C18.9364 24.2378 18.341 23.8949 17.861 23.4215L12.3352 17.9509C11.8563 17.4761 11.5095 16.887 11.3282 16.2407C11.1469 15.5944 11.1372 14.9126 11.3002 14.2615L12.5332 9.38546C12.5889 9.16366 12.5931 8.93226 12.5456 8.70861C12.498 8.48496 12.4 8.27486 12.2587 8.09407L8.2223 2.95748ZM4.23993 1.13841C4.63365 0.748656 5.10666 0.446252 5.62755 0.251277C6.14843 0.0563023 6.70527 -0.0267812 7.26109 0.00754354C7.81691 0.0418683 8.35899 0.192816 8.85134 0.450363C9.34369 0.70791 9.77504 1.06616 10.1167 1.50133L14.1531 6.6357C14.8933 7.57752 15.1543 8.80433 14.8618 9.96213L13.6311 14.8382C13.5679 15.0908 13.5716 15.3552 13.6418 15.606C13.7119 15.8568 13.8462 16.0854 14.0316 16.2699L19.5597 21.7404C19.7463 21.9243 19.9778 22.0574 20.2316 22.1269C20.4854 22.1963 20.7531 22.1997 21.0087 22.1368L25.9337 20.9189C26.5112 20.7768 27.1136 20.7661 27.6958 20.8876C28.278 21.0091 28.8248 21.2596 29.2951 21.6202L34.4835 25.6146C36.3487 27.0507 36.5197 29.7782 34.8502 31.428L32.5238 33.7303C30.8588 35.3779 28.3704 36.1015 26.0507 35.2933C20.1124 33.2284 14.7213 29.8645 10.2787 25.4521C5.82022 21.0563 2.42098 15.7221 0.334049 9.84635C-0.480425 7.55303 0.250802 5.08826 1.91575 3.44064L4.23993 1.13841Z" fill="white"/>
</svg>
