<svg xmlns="http://www.w3.org/2000/svg" xmlns:xlink="http://www.w3.org/1999/xlink" width="73" height="73" viewBox="0 0 73 73">
  <defs>
    <clipPath id="clip-path">
      <path id="楕円形_623" data-name="楕円形 623" d="M694.5,12468a36.5,36.5,0,1,1-36.5,36.5A36.5,36.5,0,0,1,694.5,12468Z" transform="translate(5833 2779)" fill="#6f5137"/>
    </clipPath>
    <clipPath id="clip-path-2">
      <rect id="長方形_107" data-name="長方形 107" width="62.39" height="39.345" fill="#fff"/>
    </clipPath>
  </defs>
  <g id="グループ_137" data-name="グループ 137" transform="translate(-6298 -15263)">
    <path id="楕円形_623-2" data-name="楕円形 623" d="M694.5,12468a36.5,36.5,0,1,1-36.5,36.5A36.5,36.5,0,0,1,694.5,12468Z" transform="translate(5640 2795)" fill="#6f5137"/>
    <g id="マスクグループ_30" data-name="マスクグループ 30" transform="translate(-193 16)" clip-path="url(#clip-path)">
      <g id="グループ_130" data-name="グループ 130" transform="translate(6498 15270.249)">
        <g id="グループ_129" data-name="グループ 129" transform="translate(-1 -4)" clip-path="url(#clip-path-2)">
          <path id="パス_201" data-name="パス 201" d="M33.978,39.341c0-.079.008-.144.01-.209.009-.284-.146-.439-.423-.393-.374.062-.744.142-1.115.217a.771.771,0,0,1-.982-.531.456.456,0,0,0-.525-.367,2.52,2.52,0,0,1-.258,0,.4.4,0,0,1-.395-.544c.085-.272.193-.537.29-.8-.33-.209-.333-.253-.045-.539a1.493,1.493,0,0,1,1.137-.477,7.127,7.127,0,0,0,3.374-.7,2.157,2.157,0,0,0,1.326-1.286.938.938,0,0,0,.042-.249c0-.277-.019-.289-.27-.17a.856.856,0,0,1-.163.066c-.25.063-.292.027-.287-.233,0-.155,0-.31,0-.509-.232.07-.388.124-.547.165-.18.047-.27-.044-.212-.222.073-.223.163-.44.261-.7l-.367.044.336-.592-.445.121c.12-.32.2-.573.309-.815.087-.2.01-.269-.167-.247-.244.03-.318-.095-.318-.393-.207.17-.373.288-.516.43a.641.641,0,0,1-.492.221,4.316,4.316,0,0,1-1.762-.31.68.68,0,0,1-.429-.6,1.3,1.3,0,0,0-.224-.434,2.171,2.171,0,0,1-.272-.474c-.1-.375.189-.515.535-.659-.657-.057-1.247-.1-1.835-.162-.572-.063-1.142-.139-1.709-.233-.79-.132-1.572-.314-2.365-.415a1.144,1.144,0,0,0-.661.259,6.175,6.175,0,0,1-1.376.842,2.919,2.919,0,0,1-1.461.061c-.187-.032-.2-.187-.15-.343.047-.135.109-.265.155-.373H19.939c-.192.407-.362.768-.534,1.129-.2.41-.414.811-.59,1.23a1.394,1.394,0,0,1-1.218.828,14.486,14.486,0,0,1-2.248.1,13.509,13.509,0,0,1-2.062-.251.752.752,0,0,1-.535-1.2.484.484,0,0,0-.021-.31,2.712,2.712,0,0,1-.2-.693c.008-.351.375-.553.76-.491.107.017.218.017.347.026,0-.288.068-.535.384-.571a.764.764,0,0,1,.388.073c.2.093.373.23.567.331a.359.359,0,0,0,.437-.073,1.513,1.513,0,0,1,.393-.171c-.079-.27-.186-.6-.273-.94-.355-1.377-.735-2.748-1.043-4.135a12.041,12.041,0,0,1-.216-2.046,4.477,4.477,0,0,0-.684-2.2c-.537-.857-1.115-1.691-1.707-2.512-.347-.48-.744-.926-1.138-1.371-.756-.856-1.512-1.713-2.3-2.539a1.613,1.613,0,0,0-.722-.315,2.52,2.52,0,0,0-.6-.009A3.745,3.745,0,0,1,8.99,14.294a3.082,3.082,0,0,0-1.052-1.673,10.582,10.582,0,0,0-1.291-.838c-.076-.046-.2-.007-.381-.007A2.842,2.842,0,0,1,7.537,14.51c-.026-.2-.053-.4-.079-.6a2.712,2.712,0,0,0-1.224-1.843,1,1,0,0,0-.939-.149,5.282,5.282,0,0,1,1.683,3,5.585,5.585,0,0,0-1.729-2.682.927.927,0,0,0-.74-.305,4.546,4.546,0,0,1-2.339-.466,3,3,0,0,1-.5-.337,3.186,3.186,0,0,0-.941-.557c-.823-.294-.9-.86-.453-1.629a4.728,4.728,0,0,1,.767-.976A11.515,11.515,0,0,0,2.465,6.028a7.154,7.154,0,0,1,1.229-1.42,11.533,11.533,0,0,0,1.381-1.48C5.651,2.4,6.178,1.635,6.716.879A2.885,2.885,0,0,0,7.034.307c.118-.287.227-.365.513-.265a1.942,1.942,0,0,1,.9.573.4.4,0,0,0,.3.066C9.5.6,10.25.493,11,.439a10.821,10.821,0,0,1,1.657,0,6.448,6.448,0,0,1,3.65,1.332,8.2,8.2,0,0,1,1.756,2.036A13.99,13.99,0,0,0,20.5,6.742,16.962,16.962,0,0,0,23.662,9.11a9.053,9.053,0,0,0,1.86.779,3.838,3.838,0,0,0,2.362-.125,38.652,38.652,0,0,1,5.41-1.431c.88-.161,1.765-.295,2.652-.412.606-.079,1.217-.128,1.828-.155.847-.036,1.7-.088,2.544-.043a20.159,20.159,0,0,1,3.565.488,15.79,15.79,0,0,1,3.508,1.258A13.727,13.727,0,0,1,50,11.2a13.479,13.479,0,0,1,3.064,3.674c.468.815.808,1.7,1.2,2.561.047.1.069.185.218.191a9.285,9.285,0,0,1,2.71.585,11.134,11.134,0,0,1,2.79,1.415,5.678,5.678,0,0,1,2.187,2.659,3.952,3.952,0,0,1,.163,1.959,6.572,6.572,0,0,1-1.649,3.25,18.734,18.734,0,0,1-3.557,3.148,41.063,41.063,0,0,1-4.06,2.521.539.539,0,0,0-.217.256,2.952,2.952,0,0,1-1.892,1.787,9.214,9.214,0,0,1-1.724.365c-.734.092-1.477.108-2.215.167a7.536,7.536,0,0,0-2.189.565,16.027,16.027,0,0,1-2.466.712c-1.053.232-2.124.382-3.185.58-.679.126-1.356.26-2.028.419a1.142,1.142,0,0,0-.539.3,3.042,3.042,0,0,1-1.267.663c-.4.145-.82.248-1.231.366a.566.566,0,0,1-.139,0M55.529,24.13c.114-.03.261-.063.4-.108a6.017,6.017,0,0,0,1.912-.833c.525-.4.746-.748.117-1.342a8.156,8.156,0,0,0-2.148-1.284c-.235-.114-.478-.21-.688-.3l.4,3.869" transform="translate(0 0)" fill="#fff"/>
        </g>
      </g>
    </g>
  </g>
</svg>
