<svg height="73" viewBox="0 0 73 73" width="73" xmlns="http://www.w3.org/2000/svg" xmlns:xlink="http://www.w3.org/1999/xlink"><clipPath id="a"><path d="m797 9255.5a36.5 36.5 0 1 1 36.5 36.5 36.5 36.5 0 0 1 -36.5-36.5z"/></clipPath><clipPath id="b"><path d="m0 0h86v116h-86z"/></clipPath><g transform="translate(-797 -9219)"><path d="m797 9255.5a36.5 36.5 0 1 1 36.5 36.5 36.5 36.5 0 0 1 -36.5-36.5z" fill="#6f5137"/><g clip-path="url(#a)"><g clip-path="url(#b)" transform="translate(811 9228)"><path d="m19.144 7.977s6.875-1.326 8.328-.663c0 0 8.328-6.1 9.651-5.7 0 0 2.38-1.458-2.644 9.406a15.8 15.8 0 0 0 1.453 6.228s2.512 2.914-.793 9.937a8.412 8.412 0 0 0 -.132 3.71 6.8 6.8 0 0 1 .793 5.035s7.008 2.915 8.594 7.021c0 0 8.065 8.878 11.5 26.234 0 0 6.08 7.949 4.758 14.97 0 0-1.454 6.89.4 7.289 0 0 4.759-1.061 9.385-13.118 0 0 3.042-11.792 10.841-11.129 0 0 7.536.4 3.57 6.624 0 0-3.833-.795-5.949 4.24 0 0-3.966 14.044-8.328 16.959 0 0-11.634 7.553-13.221 9.009 0 0-10.706 6.494-12.823 8.217 0 0-2.907.926-4.231.4 0 0-3.436.4-3.833-2.384 0 0-5.421-.4-5.949-.927 0 0 .793 7.154-3.041 5.564 0 0-5.287 2.386-7.668.133 0 0-2.115-1.06.4-3.578l1.983-3.313s-6.081-2.251-6.61-1.59a20.475 20.475 0 0 1 -2.643 4.373s-.793 1.194-4.5 1.194c0 0-4.1.795-4.229-2.783a5.275 5.275 0 0 1 2.91-4.108s1.584-6.227-1.192-14.971c0 0-4.5-19.344-3.172-21.2 0 0-6.61-32.726.66-39.351 0 0 3.041-10.731 3.173-14.044 0 0 0-3.976 1.85-5.035 0 0-1.056-9.54 3.437-10.6 0 0 3.174-.929 7.273 7.949"/></g><path d="m833.718 9344a4.126 4.126 0 0 1 -2.913-.969s-2.118-1.06.4-3.576l1.982-3.313s-6.081-2.252-6.609-1.591a20.459 20.459 0 0 1 -2.645 4.374s-.793 1.191-4.5 1.191c0 0-4.1.8-4.228-2.781a5.269 5.269 0 0 1 2.91-4.106s1.585-6.229-1.191-14.974c0 0-4.5-19.343-3.173-21.2 0 0-6.609-32.727.661-39.352 0 0 3.039-10.731 3.173-14.043 0 0 0-3.978 1.848-5.037 0 0-1.055-9.538 3.438-10.6 0 0 3.175-.931 7.272 7.948 0 0 6.876-1.328 8.328-.664 0 0 8.328-6.095 9.653-5.7 0 0 2.378-1.456-2.645 9.406a15.8 15.8 0 0 0 1.454 6.229s2.512 2.913-.8 9.937a8.4 8.4 0 0 0 -.131 3.708 6.8 6.8 0 0 1 .793 5.037s7.01 2.915 8.595 7.021c0 0 8.065 8.879 11.5 26.235 0 0 6.081 7.948 4.758 14.969 0 0-1.454 6.891.4 7.289 0 0 4.761-1.062 9.385-13.116 0 0 3.044-11.794 10.842-11.13 0 0 7.537.4 3.569 6.622 0 0-3.832-.795-5.947 4.243 0 0-3.968 14.042-8.33 16.957 0 0-11.632 7.552-13.22 9.011 0 0-10.706 6.493-12.823 8.215 0 0-2.906.927-4.231.4 0 0-3.436.4-3.832-2.383 0 0-5.422-.4-5.95-.929 0 0 .793 7.155-3.042 5.565a13.481 13.481 0 0 1 -4.747 1.1z" fill="#fff"/></g></g></svg>