<svg height="73" viewBox="0 0 73 73" width="73" xmlns="http://www.w3.org/2000/svg" xmlns:xlink="http://www.w3.org/1999/xlink"><clipPath id="a"><path d="m623 9254.5a36.5 36.5 0 1 1 36.5 36.5 36.5 36.5 0 0 1 -36.5-36.5z"/></clipPath><clipPath id="b"><path d="m0 0h167v117h-167z"/></clipPath><g transform="translate(-623 -9218.001)"><path d="m623 9254.5a36.5 36.5 0 1 1 36.5 36.5 36.5 36.5 0 0 1 -36.5-36.5z" fill="#6f5137"/><g clip-path="url(#a)"><g clip-path="url(#b)" transform="translate(632 9223)"><path d="m19.419 0s5.058 7.642 8.734 10.39a18.606 18.606 0 0 1 6.59 4.736s9.5 4.28 11.033 7.794c0 0 9.5 9.168 15.63 9.779 0 0 15.936 1.528 19 2.447 0 0 22.218-3.974 39.994 1.527 0 0 18.848 7.334 21.455 18.335 0 0 7.355 14.823 17.928 14.823 0 0 6.059-.422 7.1 4.394.044.2.078.421.106.647.613 5.5-18.389 5.806-22.066 2.293 0 0-3.983 3.362 5.517 9.168 0 0 1.838.916 5.056 8.4 0 0 9.346 13.754 9.346 17.421 0 0 2.3 2.6-2.3 2.6 0 0-2.911 1.222-4.9 0 0 0-.459-1.986 1.074-2.445 0 0-9.5-19.407-20.994-23.379 0 0 1.532 11.461-3.525 21.546 0 0-.918 3.973-8.734 1.528 0 0-2.759-2.291 2.606-5.043 0 0 2.757-.458 2.911-4.89 0 0 1.991-7.792-5.823-13.6 0 0-17.469-13.752-18.082-20.475 0 0-4.138-1.834-20.84 4.432 0 0-14.71 5.5-22.372 5.194a87.392 87.392 0 0 0 0 24.6s1.226 1.68-.92 3.513c0 0-1.073 6.877-4.29 8.557 0 0-8.888 6.57-9.347-.764 0 0-7.816.612-3.831-3.818 0 0-1.226-.919.459-1.376 0 0 5.058-1.376 5.516-2.291a25.531 25.531 0 0 0 .306-8.1s-1.844-7.943-1.69-9.471c0 0-3.832-13.141-6.13-17.114 0 0-9.194-3.972-9.041-12.683 0 0-4.291-8.251-3.83-10.237 0 0-5.364-.917-6.589-6.265 0 0-5.364-4.125-5.058-4.889 0 0-6.436 1.376-9.042 1.53 0 0-3.217.915-7.355-3.058 0 0-4.6-1.528-2.452-3.973 0 0 5.058-6.112 9.042-6.875a7.87 7.87 0 0 0 .919-4.126s1.378-5.041 7.662-8.1a15.073 15.073 0 0 0 .613-4.738s-1.993-3.514-1.532-6.723l1.072 1.069a2.205 2.205 0 0 1 1.074-2.29" fill="#fff"/></g></g></g></svg>