<svg xmlns="http://www.w3.org/2000/svg" xmlns:xlink="http://www.w3.org/1999/xlink" width="73" height="73" viewBox="0 0 73 73">
  <defs>
    <clipPath id="clip-path">
      <path id="楕円形_623" data-name="楕円形 623" d="M694.5,12468a36.5,36.5,0,1,1-36.5,36.5A36.5,36.5,0,0,1,694.5,12468Z" transform="translate(6072 2535)" fill="#6f5137"/>
    </clipPath>
    <clipPath id="clip-path-2">
      <rect id="長方形_109" data-name="長方形 109" width="26.69" height="54.219" fill="#fff"/>
    </clipPath>
  </defs>
  <g id="グループ_135" data-name="グループ 135" transform="translate(-6623 -15060)">
    <path id="楕円形_623-2" data-name="楕円形 623" d="M694.5,12468a36.5,36.5,0,1,1-36.5,36.5A36.5,36.5,0,0,1,694.5,12468Z" transform="translate(5965 2592)" fill="#6f5137"/>
    <g id="マスクグループ_32" data-name="マスクグループ 32" transform="translate(-107 57)" clip-path="url(#clip-path)">
      <g id="グループ_134" data-name="グループ 134" transform="translate(6758.573 15014.506) rotate(11)">
        <g id="グループ_133" data-name="グループ 133" clip-path="url(#clip-path-2)">
          <path id="パス_203" data-name="パス 203" d="M19.736,52.182c.109.387-.2.606-.7.508a3.937,3.937,0,0,1-2.123-1.1c-.532-.545-1.059-1.1-1.619-1.611a10.878,10.878,0,0,0-2.128-1.691,2.717,2.717,0,0,0-2.161-.218,13.024,13.024,0,0,0-1.974.761,30.188,30.188,0,0,1-3.967,1.494,6.347,6.347,0,0,0-2.11,1.12,2.008,2.008,0,0,0-.565.918,11.442,11.442,0,0,1-.588,1.5.69.69,0,0,1-1.245-.069,2.022,2.022,0,0,1-.141-1.446,14.362,14.362,0,0,1,.591-2,2.967,2.967,0,0,0-.1-2.109c-.248-.686-.5-1.374-.688-2.078A6.639,6.639,0,0,1,.025,44.7c-.031-.827-.034-1.657,0-2.484.029-.694.126-1.386.2-2.078.051-.514.1-1.03.161-1.544.079-.673.172-1.344.251-2.016.059-.506.1-1.014.161-1.519q.123-.983.271-1.962c.089-.583.2-1.164.294-1.746.122-.725.233-1.45.368-2.171.16-.852.33-1.7.515-2.55a27.809,27.809,0,0,1,1.394-4.316q1.015-2.555,2.016-5.116a26.15,26.15,0,0,0,1.227-4.447c.108-.547.112-1.114.167-1.671a22.458,22.458,0,0,1,.248-2.587A3.961,3.961,0,0,0,6.97,6.032a6.862,6.862,0,0,1-.337-1.054,2.373,2.373,0,0,1,.308-1.832A2.411,2.411,0,0,1,8.606,1.88a7.039,7.039,0,0,1,1.877-.1,4.406,4.406,0,0,0,2.272-.318,9.731,9.731,0,0,1,1.717-.49C15.381.759,16.29.54,17.208.37A17.339,17.339,0,0,1,19.35.1c1.145-.067,2.294-.117,3.44-.1a5.12,5.12,0,0,1,2.471.569,1.736,1.736,0,0,1,.91,1,1.561,1.561,0,0,1,.088.521,2.439,2.439,0,0,0,.266,1.047,2.123,2.123,0,0,1-.045,1.746A7.985,7.985,0,0,0,26,6.08a6.271,6.271,0,0,0-.145,1.08,2.424,2.424,0,0,1-.906,1.634,4.031,4.031,0,0,0-1.5,2.155,3.205,3.205,0,0,0,.051,1.432c.176.726.4,1.443.558,2.172a10.688,10.688,0,0,1,.189,1.408c.04.461.006.929.072,1.385a.763.763,0,0,0,.36.512,3.165,3.165,0,0,1,1.4,1.521,5.261,5.261,0,0,1,.508,1.287,1.285,1.285,0,0,1-.145,1.15A.865.865,0,0,1,25.252,22a4.086,4.086,0,0,1-.949-1.294c-.107-.181-.2-.368-.343-.62a5.66,5.66,0,0,0-.459.48,3.907,3.907,0,0,0-.693,1.824,14.641,14.641,0,0,1-.565,2.589c-.206.6-.381,1.207-.642,1.778a7.564,7.564,0,0,1-.765,1.191,9.643,9.643,0,0,0-1.184,2.671,10.627,10.627,0,0,0-.474,2.194,7.142,7.142,0,0,0,.494,2.973,9.646,9.646,0,0,1,.509,2.963,11.36,11.36,0,0,1-.7,4.341c-.407,1.006-.932,1.964-1.409,2.941a9.178,9.178,0,0,0-.96,2.029,1.694,1.694,0,0,0,.089,1.142,1.033,1.033,0,0,0,.952.6,6.91,6.91,0,0,1,2.51.54,1.3,1.3,0,0,1,.759.8.469.469,0,0,1-.29.659c-.455.144-.921.255-1.4.384M11.006,9.036A3.227,3.227,0,0,1,9.672,8.7a1.634,1.634,0,0,1-.725-2.112A3.544,3.544,0,0,1,10.471,4.92c.387-.236.806-.422,1.2-.64.072-.04.115-.129.172-.2-.086-.038-.18-.121-.256-.107a6.929,6.929,0,0,0-1.47.331,3.473,3.473,0,0,0-1.838,2.1A2.308,2.308,0,0,0,9.276,9.26a3.106,3.106,0,0,0,2.577.369,2.322,2.322,0,0,0,1.42-.9c.11-.159.215-.341.063-.472-.064-.056-.334.031-.435.13a2.54,2.54,0,0,1-1.9.651m7.408-6.248a1.082,1.082,0,0,0-.869.278.925.925,0,0,0-.367.957.874.874,0,0,0,.625.669,1.3,1.3,0,0,0,1.3-.409,1.061,1.061,0,0,0,.064-1.152.654.654,0,0,0-.757-.344" transform="translate(0 0)" fill="#fff"/>
        </g>
      </g>
    </g>
  </g>
</svg>
