<svg xmlns="http://www.w3.org/2000/svg" xmlns:xlink="http://www.w3.org/1999/xlink" width="73" height="73" viewBox="0 0 73 73">
  <defs>
    <clipPath id="clip-path">
      <path id="楕円形_623" data-name="楕円形 623" d="M694.5,12468a36.5,36.5,0,1,1-36.5,36.5A36.5,36.5,0,0,1,694.5,12468Z" transform="translate(5922 2862)" fill="#6f5137"/>
    </clipPath>
    <clipPath id="clip-path-2">
      <rect id="長方形_113" data-name="長方形 113" width="70.782" height="42.667" transform="translate(0 0)" fill="#fff"/>
    </clipPath>
  </defs>
  <g id="グループ_143" data-name="グループ 143" transform="translate(-6474 -15376)">
    <path id="楕円形_623-2" data-name="楕円形 623" d="M694.5,12468a36.5,36.5,0,1,1-36.5,36.5A36.5,36.5,0,0,1,694.5,12468Z" transform="translate(5816 2908)" fill="#6f5137"/>
    <g id="マスクグループ_36" data-name="マスクグループ 36" transform="translate(-106 46)" clip-path="url(#clip-path)">
      <g id="グループ_142" data-name="グループ 142" transform="translate(6566.08 15335.166)">
        <g id="グループ_141" data-name="グループ 141" transform="translate(21.253 10)" clip-path="url(#clip-path-2)">
          <path id="パス_204" data-name="パス 204" d="M23.613,36.632c.965.689,1.77,1.178,2.469,1.788.682.6.543,1.317-.239,1.772-.19.11-.482.149-.571.308-.227.4-.572.909-.483,1.28a1.415,1.415,0,0,0,1.015.86,12.131,12.131,0,0,0,2.908-.159,2.308,2.308,0,0,0,1.778-2.633c-.06-.586-.2-1.164-.335-1.892.461,0,.823-.009,1.183,0q6.8.183,13.593.365c.408.01.822-.093,1.224-.052.293.03.808.2.812.324a1.811,1.811,0,0,1-.323,1.067c-.163.219-.625.2-.815.416-.308.346-.718.813-.682,1.192a1.409,1.409,0,0,0,.89,1,10.716,10.716,0,0,0,3.089.134A2.4,2.4,0,0,0,51,39.472c-.076-.52-.157-1.038-.274-1.812a12.049,12.049,0,0,1,2.121.478,1.194,1.194,0,0,1,.128,2.076c-.231.161-.586.253-.689.468A2.029,2.029,0,0,0,52,41.949a1.24,1.24,0,0,0,.947.7,12.809,12.809,0,0,0,3.067-.393,2.35,2.35,0,0,0,1.577-2.7c-.045-.342-.128-.682-.149-1.026-.079-1.256.227-1.713,1.44-2.066a19.691,19.691,0,0,0,7.747-3.974c.421-.372.871-.713,1.307-1.068l-.135-.4-3.609-.56c2.439-2.56,5.13-4.874,6.586-8.335l-5.915-.968,3.908-6.943-.219-.319-6.451.9,1.753-6.756L63.6,7.779,57.567,9.595l1.226-5.664L58.6,3.653,52.24,5.906c.262-1.509.527-3.035.791-4.562L52.784,1.1,45.79,3.49V0c-2.783.346-5.077,1.653-7.5,2.855-.251-.886-.486-1.711-.779-2.746L30.7,3.8c-.072-.759-.141-1.492-.209-2.225l-.268-.213L25.363,4.84l-.664-1.5L20.086,7.115c-.176-.6-.355-1.207-.564-1.912a15.93,15.93,0,0,0-5.289,4.174L13,7.233c-.283.4-.483.654-.66.927a22.269,22.269,0,0,0-3.29,8.569,5.736,5.736,0,0,1-.691,1.729A8.8,8.8,0,0,0,7.206,22.4a14.264,14.264,0,0,1-.268,2.435,2.471,2.471,0,0,1-3.007,2.169,16.245,16.245,0,0,1-2.555-.634c-.161-.047-.221-.368-.385-.481a5.766,5.766,0,0,0-.83-.4c-.054.307-.225.655-.137.913.241.7.592,1.357.9,2.032a6.52,6.52,0,0,0,3.257,3.276,16.857,16.857,0,0,0,8.015,1.356,7.508,7.508,0,0,1,5.944,2.15,12.257,12.257,0,0,1,1.756,2.643c.4.723.085,1.294-.716,1.512-.736.2-1.318.525-1.222,1.4s.779,1.066,1.5,1.156c.623.078,1.25.157,1.878.179A2.364,2.364,0,0,0,23.9,39.284c-.083-.78-.171-1.559-.29-2.652M17.13,25.207c-.019-.091-.038-.183-.057-.275a3.872,3.872,0,0,1,2.919-.547,1.851,1.851,0,0,1,1.266.915,1.888,1.888,0,0,1-.472,1.56,8.317,8.317,0,0,1-1.981,1.2c-.1.054-.3-.07-.716-.183.716-.3,1.2-.46,1.648-.7.669-.357,1.284-.887,1.013-1.7-.261-.786-1.071-.753-1.768-.691a7.884,7.884,0,0,0-1.093.256c-.253.06-.506.113-.759.169m37.851-6.153c-.186-1.144,1.3-2.309,3.267-2.742l-3.267,2.742M54.51,32.59c-1.448.5-2.66,1.192-4.154,1,.394-.9,2.009-1.278,4.154-1M36.564,10.354c.194-1.6,1.452-2.455,2.421-3.512-.668,1.267-1.056,2.73-2.421,3.512M28.854,8.54c-.62,1.264-1.041,2.667-2.4,3.41.191-1.566,1.418-2.4,2.4-3.41m13.9,9.129c-.978.988-1.853,2.146-3.316,2.475.618-1.479,2.083-1.809,3.316-2.475m-23.186.124a5.841,5.841,0,0,1-2.616,3.587,8.44,8.44,0,0,1,2.616-3.587m32.049,7.461c-1.167.7-2.247,1.641-3.765,1.511.922-1.281,2.432-1.174,3.765-1.511m11.375.5c-1.144.77-2.15,1.825-3.684,1.792.869-1.335,2.362-1.388,3.684-1.792M42.486,30.333c-1.2.7-2.314,1.627-3.83,1.537,1-1.211,2.461-1.255,3.83-1.537m4.227-18.388c-.125-.83,1.482-2.544,2.782-2.967-.93,1.618-1.97,2.728-2.782,2.967m-17.33,6.711c.656-1.4,2-1.833,3.248-2.407a6.769,6.769,0,0,1-3.248,2.407m4.407,7.477c-.95.963-1.785,2.088-3.225,2.367.673-1.349,1.966-1.835,3.225-2.367M12.245,17.3c-.039-1.426.922-2.35,1.622-3.41a6.9,6.9,0,0,1-1.622,3.41m-2.79,9.325.827-.8c.167.254.483.523.46.759-.027.279-.347.529-.54.791l-.748-.749" transform="translate(0 0)" fill="#fff"/>
        </g>
      </g>
    </g>
  </g>
</svg>
